<svg id="Layer_1" data-name="Layer 1" xmlns="http://www.w3.org/2000/svg" viewBox="0 0 366.46 63.24"><defs><style>.cls-1{fill:#fff;}.cls-2{fill:none;stroke:#fff;stroke-miterlimit:1;stroke-width:0.8px;}</style></defs><title>CSSD Single CMYK White</title><path class="cls-1" d="M367.35,63.77l-5.61-8.64a.17.17,0,0,0-.14-.07h-.51c-.11,0-.17.06-.17.18V64c0,.12.06.18.17.18a.16.16,0,0,0,.18-.18V55.41h.24l5.61,8.64a.15.15,0,0,0,.06,0l.08,0h.46a.16.16,0,0,0,.18-.18V55.19a.18.18,0,0,0-.36,0v8.58Zm-9.89-2.52a4.31,4.31,0,0,1-.8,1.38,3.75,3.75,0,0,1-1.26.95,4,4,0,0,1-1.68.35,3.81,3.81,0,0,1-3-1.3,4.28,4.28,0,0,1-.79-1.38,5.11,5.11,0,0,1-.27-1.66,5,5,0,0,1,.27-1.65,4.23,4.23,0,0,1,.79-1.39,3.86,3.86,0,0,1,1.27-.94,3.77,3.77,0,0,1,1.68-.36,3.83,3.83,0,0,1,1.68.36,3.72,3.72,0,0,1,1.26.94,4.25,4.25,0,0,1,.8,1.39,5,5,0,0,1,.27,1.65,5.11,5.11,0,0,1-.27,1.66m-7.8.21a4.54,4.54,0,0,0,.91,1.48,3.9,3.9,0,0,0,1.38,1,4.53,4.53,0,0,0,3.54,0,4.09,4.09,0,0,0,1.38-1,4.36,4.36,0,0,0,.9-1.48,5.46,5.46,0,0,0,0-3.74,4.36,4.36,0,0,0-.9-1.48,4.09,4.09,0,0,0-1.38-1,4.53,4.53,0,0,0-3.54,0,3.9,3.9,0,0,0-1.38,1,4.54,4.54,0,0,0-.91,1.48,5.62,5.62,0,0,0,0,3.74m-9.49-6.05h2.07a6.06,6.06,0,0,1,1.89.28,3.69,3.69,0,0,1,1.37.82,3.54,3.54,0,0,1,.83,1.31,5.73,5.73,0,0,1,0,3.54,3.54,3.54,0,0,1-.83,1.31,3.69,3.69,0,0,1-1.37.82,6.06,6.06,0,0,1-1.89.28h-2.07Zm2.07,8.71a6.19,6.19,0,0,0,1.92-.28,3.94,3.94,0,0,0,1.49-.83,3.8,3.8,0,0,0,1-1.42,5.26,5.26,0,0,0,.35-2,5.35,5.35,0,0,0-.35-2,3.69,3.69,0,0,0-1-1.41,3.83,3.83,0,0,0-1.49-.84,6.5,6.5,0,0,0-1.92-.27H340c-.12,0-.17.06-.17.18v8.7c0,.12.05.18.17.18ZM336,63.77l-5.61-8.64a.16.16,0,0,0-.14-.07h-.5a.16.16,0,0,0-.18.18V64a.16.16,0,0,0,.18.18c.11,0,.17-.06.17-.18V55.41h.24l5.61,8.64.06,0,.08,0h.46a.16.16,0,0,0,.18-.18V55.19a.18.18,0,0,0-.36,0v8.58Zm-9.89-2.52a4.48,4.48,0,0,1-.79,1.38,3.89,3.89,0,0,1-1.27.95,4.21,4.21,0,0,1-3.36,0,3.89,3.89,0,0,1-1.27-.95,4.48,4.48,0,0,1-.79-1.38,5.11,5.11,0,0,1-.27-1.66,5,5,0,0,1,.27-1.65,4.41,4.41,0,0,1,.79-1.39,3.86,3.86,0,0,1,1.27-.94,4.1,4.1,0,0,1,3.36,0,3.86,3.86,0,0,1,1.27.94,4.41,4.41,0,0,1,.79,1.39,5,5,0,0,1,.27,1.65,5.11,5.11,0,0,1-.27,1.66m-7.8.21a4.54,4.54,0,0,0,.91,1.48,4,4,0,0,0,1.38,1,4.53,4.53,0,0,0,3.54,0,4,4,0,0,0,1.38-1,4.36,4.36,0,0,0,.9-1.48,5.46,5.46,0,0,0,0-3.74,4.36,4.36,0,0,0-.9-1.48,4,4,0,0,0-1.38-1,4.53,4.53,0,0,0-3.54,0,4,4,0,0,0-1.38,1,4.54,4.54,0,0,0-.91,1.48,5.62,5.62,0,0,0,0,3.74m-5.52-6.27c0-.12,0-.18-.17-.18a.16.16,0,0,0-.18.18v8.75a.16.16,0,0,0,.18.18h3.94a.21.21,0,0,0,.13-.05.16.16,0,0,0,0-.12.17.17,0,0,0,0-.13.17.17,0,0,0-.13,0h-3.77Zm-10.85,4.47h3.83a.21.21,0,0,0,.12,0,.21.21,0,0,0,.05-.13.17.17,0,0,0-.05-.12.16.16,0,0,0-.12,0h-3.83v-3.9h4.15a.13.13,0,0,0,.12,0,.14.14,0,0,0,.05-.13.15.15,0,0,0-.05-.12.17.17,0,0,0-.12,0h-4.32a.16.16,0,0,0-.18.18V64a.16.16,0,0,0,.18.18c.11,0,.17-.06.17-.18Zm-3.81,1.59a4.48,4.48,0,0,1-.79,1.38,3.89,3.89,0,0,1-1.27.95,4.21,4.21,0,0,1-3.36,0,3.89,3.89,0,0,1-1.27-.95,4.48,4.48,0,0,1-.79-1.38,5.11,5.11,0,0,1-.27-1.66,5,5,0,0,1,.27-1.65,4.41,4.41,0,0,1,.79-1.39,3.9,3.9,0,0,1,2.95-1.3,3.8,3.8,0,0,1,1.68.36,3.86,3.86,0,0,1,1.27.94,4.41,4.41,0,0,1,.79,1.39,5,5,0,0,1,.27,1.65,5.11,5.11,0,0,1-.27,1.66m-7.79.21a4.36,4.36,0,0,0,.9,1.48,4,4,0,0,0,1.38,1,4.53,4.53,0,0,0,3.54,0,4,4,0,0,0,1.38-1,4.54,4.54,0,0,0,.91-1.48,5.62,5.62,0,0,0,0-3.74,4.54,4.54,0,0,0-.91-1.48,4,4,0,0,0-1.38-1,4.53,4.53,0,0,0-3.54,0,4,4,0,0,0-1.38,1,4.36,4.36,0,0,0-.9,1.48,5.46,5.46,0,0,0,0,3.74M281.19,64a.18.18,0,0,0,.36,0V60.13l3.06-4.85a.19.19,0,0,0,0-.18.17.17,0,0,0-.16-.09.16.16,0,0,0-.15.09l-2.93,4.65-2.9-4.65a.17.17,0,0,0-.3,0,.17.17,0,0,0,0,.18l3,4.85Zm-4.75-8.58a.13.13,0,0,0,.12,0,.17.17,0,0,0,.05-.13.18.18,0,0,0-.05-.12.17.17,0,0,0-.12,0h-6a.17.17,0,0,0-.12,0,.18.18,0,0,0-.05.12.17.17,0,0,0,.05.13.13.13,0,0,0,.12,0h2.84V64c0,.12.06.18.17.18a.16.16,0,0,0,.18-.18V55.41Zm-9-.22V64c0,.12.06.18.17.18a.16.16,0,0,0,.18-.18v-8.8a.16.16,0,0,0-.18-.18c-.11,0-.17.06-.17.18m-3,5.66a2.22,2.22,0,0,0-.58-.74,3.5,3.5,0,0,0-.85-.49,10,10,0,0,0-1-.33c-.3-.09-.58-.18-.85-.28a2.47,2.47,0,0,1-.72-.39,1.61,1.61,0,0,1-.5-.57,1.84,1.84,0,0,1-.19-.85,1.87,1.87,0,0,1,.18-.85,1.76,1.76,0,0,1,.47-.61,2,2,0,0,1,.7-.36,2.75,2.75,0,0,1,.88-.13,2.43,2.43,0,0,1,1.43.38,1.93,1.93,0,0,1,.72,1.06.16.16,0,0,0,.06.08.18.18,0,0,0,.11,0,.17.17,0,0,0,.14-.07.2.2,0,0,0,0-.17,2.36,2.36,0,0,0-.35-.75,2,2,0,0,0-.56-.52,2.25,2.25,0,0,0-.73-.3,3.36,3.36,0,0,0-.85-.1,3.45,3.45,0,0,0-1,.14,2.32,2.32,0,0,0-.83.42,2,2,0,0,0-.57.72,2.19,2.19,0,0,0-.22,1,2.16,2.16,0,0,0,.23,1,2,2,0,0,0,.58.68,3.13,3.13,0,0,0,.81.43c.31.11.61.21.92.29a8.67,8.67,0,0,1,.9.31,2.68,2.68,0,0,1,.76.43,1.87,1.87,0,0,1,.52.63,2,2,0,0,1,.2.91,2,2,0,0,1-.18.89,1.72,1.72,0,0,1-.51.62,2.06,2.06,0,0,1-.74.37,3,3,0,0,1-.91.13,2.74,2.74,0,0,1-1.64-.42,2.08,2.08,0,0,1-.78-1.21.41.41,0,0,0-.05-.09.2.2,0,0,0-.11,0,.16.16,0,0,0-.15.07.19.19,0,0,0,0,.15,2.36,2.36,0,0,0,.41.92,2.16,2.16,0,0,0,.64.57,2.33,2.33,0,0,0,.81.3,4.43,4.43,0,0,0,.9.09,3.81,3.81,0,0,0,1-.14,2.53,2.53,0,0,0,.87-.43,2.11,2.11,0,0,0,.59-.73,2.36,2.36,0,0,0,.22-1.06,2.32,2.32,0,0,0-.22-1.07M254,60.17l2.87,3.92a.16.16,0,0,0,.13.08.17.17,0,0,0,.17-.1.21.21,0,0,0,0-.19l-2.74-3.74a3.17,3.17,0,0,0,.93-.23,2.23,2.23,0,0,0,.74-.51,2.28,2.28,0,0,0,.5-.77,2.89,2.89,0,0,0,.18-1.05,2.78,2.78,0,0,0-.2-1.06,2.39,2.39,0,0,0-.57-.79,2.53,2.53,0,0,0-.86-.5,3.6,3.6,0,0,0-1.12-.17h-2.35a.16.16,0,0,0-.18.18V64a.16.16,0,0,0,.18.18c.11,0,.17-.06.17-.18V60.17Zm-2.18-4.75H254a2.88,2.88,0,0,1,1,.16,2,2,0,0,1,.75.44,1.8,1.8,0,0,1,.45.69,2.21,2.21,0,0,1,.16.87,2.55,2.55,0,0,1-.17,1,2.06,2.06,0,0,1-.49.7,2.11,2.11,0,0,1-.76.44,2.93,2.93,0,0,1-1,.15h-2.18Zm-7.34,4.2h3.82a.13.13,0,0,0,.12,0,.14.14,0,0,0,.05-.13.16.16,0,0,0-.05-.12.17.17,0,0,0-.12,0h-3.82V55.41h4.14a.14.14,0,0,0,.13,0,.17.17,0,0,0,0-.13.18.18,0,0,0,0-.12.17.17,0,0,0-.13,0h-4.32c-.12,0-.17.06-.17.18v8.7c0,.12,0,.18.17.18h4.4a.19.19,0,0,0,.13-.05.17.17,0,0,0,.05-.12.17.17,0,0,0-.05-.13.15.15,0,0,0-.13,0h-4.22Zm-6.07,4.5a.17.17,0,0,0,.17-.12l3.11-8.75a.18.18,0,0,0-.17-.24.15.15,0,0,0-.16.12l-3.07,8.64h-.41l-3.05-8.63a.22.22,0,0,0-.07-.09.18.18,0,0,0-.1,0,.16.16,0,0,0-.15.08.18.18,0,0,0,0,.16L237.59,64a.17.17,0,0,0,.16.12Zm-6.71-8.93V64c0,.12.06.18.17.18A.16.16,0,0,0,232,64v-8.8a.16.16,0,0,0-.18-.18c-.11,0-.17.06-.17.18m-3.83,8.58-5.6-8.64a.18.18,0,0,0-.15-.07h-.5a.16.16,0,0,0-.18.18V64a.16.16,0,0,0,.18.18c.12,0,.17-.06.17-.18V55.41H222l5.61,8.64a.18.18,0,0,0,.07,0l.07,0h.46a.16.16,0,0,0,.18-.18V55.19a.16.16,0,0,0-.18-.18c-.12,0-.17.06-.17.18v8.58Zm-14,0a2.39,2.39,0,0,1-.89-.59,2.43,2.43,0,0,1-.57-.93,3.38,3.38,0,0,1-.2-1.23V55.19a.18.18,0,1,0-.36,0V61a4.23,4.23,0,0,0,.22,1.37,3.12,3.12,0,0,0,.63,1,3,3,0,0,0,1,.66,4,4,0,0,0,2.68,0,3,3,0,0,0,1-.66,3.12,3.12,0,0,0,.63-1,4,4,0,0,0,.22-1.37V55.19a.18.18,0,1,0-.36,0V61a3.61,3.61,0,0,1-.19,1.23,2.7,2.7,0,0,1-.57.93,2.52,2.52,0,0,1-.9.59,3.52,3.52,0,0,1-2.34,0m-10.21-4.58a1,1,0,0,1,.2-.32,1.34,1.34,0,0,1,.3-.21,1,1,0,0,1,.4-.08,1,1,0,0,1,.39.08,1.14,1.14,0,0,1,.3.21,1,1,0,0,1,.2.32,1,1,0,0,1,.07.39,1.07,1.07,0,0,1-.07.39.92.92,0,0,1-.2.31.81.81,0,0,1-.3.21.85.85,0,0,1-.39.08.87.87,0,0,1-.4-.08.9.9,0,0,1-.3-.21.92.92,0,0,1-.2-.31,1.34,1.34,0,0,1-.07-.39,1.23,1.23,0,0,1,.07-.39m-.32.92a1.32,1.32,0,0,0,.27.42,1.19,1.19,0,0,0,.42.28,1.31,1.31,0,0,0,1,0,1.19,1.19,0,0,0,.42-.28,1.34,1.34,0,0,0,.28-.42,1.56,1.56,0,0,0,.1-.53,1.51,1.51,0,0,0-.1-.53,1.28,1.28,0,0,0-.28-.43,1.34,1.34,0,0,0-.42-.28,1.3,1.3,0,0,0-.52-.1,1.32,1.32,0,0,0-.53.1,1.34,1.34,0,0,0-.42.28,1.26,1.26,0,0,0-.27.43,1.32,1.32,0,0,0-.11.53,1.36,1.36,0,0,0,.11.53m-8.73-4.66,1.88,5.25H192.3l1.89-5.25Zm-.53-.35a.18.18,0,0,0-.17.12l-3.14,8.75a.18.18,0,0,0,0,.16.16.16,0,0,0,.15.08.13.13,0,0,0,.1,0,.22.22,0,0,0,.07-.09l1.08-3h4.43l1.08,3a.16.16,0,0,0,.16.12.21.21,0,0,0,.15-.07.17.17,0,0,0,0-.17l-3.14-8.75a.17.17,0,0,0-.17-.12ZM188,64a.2.2,0,0,0,0,.13.21.21,0,0,0,.13,0,.17.17,0,0,0,.17-.18V55.23a.15.15,0,0,0,0-.12.17.17,0,0,0-.12,0h-.61a.19.19,0,0,0-.17.09l-3.25,6.32H184l-3.38-6.32a.16.16,0,0,0-.15-.09h-.62a.17.17,0,0,0-.12,0,.18.18,0,0,0,0,.12V64a.21.21,0,0,0,0,.13.17.17,0,0,0,.12,0,.19.19,0,0,0,.13,0A.21.21,0,0,0,180,64V55.41h.34l3.38,6.31a.15.15,0,0,0,.15.1h.32a.16.16,0,0,0,.16-.1l3.25-6.31H188Zm-14.16-8.58,1.88,5.25h-4.18l1.89-5.25Zm-.53-.35a.17.17,0,0,0-.17.12L170,63.93a.18.18,0,0,0,0,.16.16.16,0,0,0,.15.08.13.13,0,0,0,.1,0,.22.22,0,0,0,.07-.09l1.08-3h4.43l1.08,3a.16.16,0,0,0,.16.12.21.21,0,0,0,.15-.07.2.2,0,0,0,0-.17l-3.14-8.75a.17.17,0,0,0-.17-.12Zm-8.22,5.11L168,64.09a.16.16,0,0,0,.13.08.16.16,0,0,0,.16-.1.19.19,0,0,0,0-.19l-2.74-3.74a3.17,3.17,0,0,0,.93-.23,2.23,2.23,0,0,0,.74-.51,2.26,2.26,0,0,0,.49-.77,2.89,2.89,0,0,0,.18-1.05,2.6,2.6,0,0,0-.2-1.06,2.23,2.23,0,0,0-.56-.79,2.48,2.48,0,0,0-.87-.5,3.5,3.5,0,0,0-1.11-.17h-2.36c-.11,0-.17.06-.17.18V64c0,.12.06.18.17.18a.16.16,0,0,0,.18-.18V60.17Zm-2.17-4.75h2.18a3,3,0,0,1,1,.16,2,2,0,0,1,.75.44,1.8,1.8,0,0,1,.45.69,2.41,2.41,0,0,1,.16.87,2.37,2.37,0,0,1-.18,1,1.93,1.93,0,0,1-.49.7,2.07,2.07,0,0,1-.75.44,2.93,2.93,0,0,1-1,.15H162.9Zm-10,0H155a6.06,6.06,0,0,1,1.89.28,3.69,3.69,0,0,1,1.37.82,3.54,3.54,0,0,1,.83,1.31,5.73,5.73,0,0,1,0,3.54,3.54,3.54,0,0,1-.83,1.31,3.69,3.69,0,0,1-1.37.82,6.06,6.06,0,0,1-1.89.28h-2.07ZM155,64.12a6.08,6.08,0,0,0,1.91-.28,3.91,3.91,0,0,0,1.5-.83,3.8,3.8,0,0,0,1-1.42,5.26,5.26,0,0,0,.35-2,5.35,5.35,0,0,0-.35-2,3.69,3.69,0,0,0-1-1.41,3.8,3.8,0,0,0-1.5-.84,6.39,6.39,0,0,0-1.91-.27h-2.25c-.12,0-.17.06-.17.18v8.7c0,.12.05.18.17.18Zm-13.5-5.74a2.85,2.85,0,0,1-.25-.33,2.82,2.82,0,0,1-.21-.38,2.21,2.21,0,0,1-.14-.41,1.63,1.63,0,0,1,0-.43,1.65,1.65,0,0,1,.13-.68,1.46,1.46,0,0,1,.35-.49,1.58,1.58,0,0,1,.52-.3,1.84,1.84,0,0,1,.62-.11,1.8,1.8,0,0,1,.62.11,1.58,1.58,0,0,1,.52.3,1.33,1.33,0,0,1,.35.49,1.65,1.65,0,0,1,.13.68,1.67,1.67,0,0,1-.13.67,2.18,2.18,0,0,1-.37.58,4.11,4.11,0,0,1-.61.54c-.23.18-.5.36-.8.55Zm-1.12,2.82a2.7,2.7,0,0,1,.43-.63,4.4,4.4,0,0,1,.61-.52l.68-.44,2.73,3.12a3.1,3.1,0,0,1-1,.87,2.71,2.71,0,0,1-1.36.33,2.63,2.63,0,0,1-.84-.13,2.28,2.28,0,0,1-.73-.37,1.78,1.78,0,0,1-.5-.62,1.75,1.75,0,0,1-.19-.85,1.6,1.6,0,0,1,.17-.76M144.28,56a1.65,1.65,0,0,0-.45-.61,1.77,1.77,0,0,0-.63-.35,2.34,2.34,0,0,0-1.48,0,1.86,1.86,0,0,0-.63.35,1.76,1.76,0,0,0-.45.61,2.18,2.18,0,0,0-.1,1.33,2.6,2.6,0,0,0,.16.47,2.3,2.3,0,0,0,.23.44,3.17,3.17,0,0,0,.29.4l.65.73q-.42.26-.78.51a3.45,3.45,0,0,0-.63.57,2.34,2.34,0,0,0-.44.68,2.12,2.12,0,0,0-.19.85,2.31,2.31,0,0,0,.22,1,2.22,2.22,0,0,0,.57.72,2.54,2.54,0,0,0,.83.44,3.33,3.33,0,0,0,1,.15,3.13,3.13,0,0,0,1.5-.35,3.54,3.54,0,0,0,1.1-.93l1,1.1a.19.19,0,0,0,.14.07.16.16,0,0,0,.16-.11.19.19,0,0,0,0-.19l-1-1.17a4.64,4.64,0,0,0,.49-1,6,6,0,0,0,.26-1.13c0-.14-.05-.21-.19-.21a.15.15,0,0,0-.16.14,5,5,0,0,1-.22,1,3.73,3.73,0,0,1-.42.93l-2.63-3a7.81,7.81,0,0,0,.79-.54,4.2,4.2,0,0,0,.66-.59,2.59,2.59,0,0,0,.43-.68,1.85,1.85,0,0,0,.16-.78,2,2,0,0,0-.16-.85m-11.35,8a.18.18,0,1,0,.36,0v-8.8a.18.18,0,1,0-.36,0v4.08H127V55.19c0-.12-.06-.18-.17-.18a.16.16,0,0,0-.18.18V64a.16.16,0,0,0,.18.18c.11,0,.17-.06.17-.18V59.62h5.91Zm-14.48-.41a3.89,3.89,0,0,1-1.27-.95,4.48,4.48,0,0,1-.79-1.38,5.11,5.11,0,0,1-.27-1.66,5,5,0,0,1,.27-1.65,4.41,4.41,0,0,1,.79-1.39,3.9,3.9,0,0,1,2.95-1.3,4.19,4.19,0,0,1,1.2.17,3.77,3.77,0,0,1,1,.47,3,3,0,0,1,.74.72,3.23,3.23,0,0,1,.47.9.14.14,0,0,0,.15.1.2.2,0,0,0,.15-.06.2.2,0,0,0,0-.17,3.53,3.53,0,0,0-.52-1,3.75,3.75,0,0,0-.81-.78,3.84,3.84,0,0,0-1.08-.51,4.23,4.23,0,0,0-1.31-.19,4.31,4.31,0,0,0-1.77.36,4,4,0,0,0-1.38,1,4.54,4.54,0,0,0-.91,1.48,5.62,5.62,0,0,0,0,3.74,4.54,4.54,0,0,0,.91,1.48,4,4,0,0,0,1.38,1,4.31,4.31,0,0,0,1.77.36,4.56,4.56,0,0,0,1.31-.18,4.16,4.16,0,0,0,1.08-.52,3.46,3.46,0,0,0,.83-.79,3.4,3.4,0,0,0,.52-1,.21.21,0,0,0,0-.18.2.2,0,0,0-.15-.06.14.14,0,0,0-.15.1,3.15,3.15,0,0,1-.47.91,3.4,3.4,0,0,1-1.75,1.2,4.19,4.19,0,0,1-1.2.17,4,4,0,0,1-1.68-.35m-9.26-4H113a.16.16,0,0,0,.12,0,.17.17,0,0,0,0-.13.17.17,0,0,0-.17-.17h-3.83V55.41h4.15a.13.13,0,0,0,.12,0,.14.14,0,0,0,.05-.13.15.15,0,0,0-.05-.12.17.17,0,0,0-.12,0H109a.16.16,0,0,0-.18.18v8.7a.16.16,0,0,0,.18.18h4.4a.17.17,0,0,0,.12-.05.13.13,0,0,0,0-.12.14.14,0,0,0,0-.13.13.13,0,0,0-.12,0h-4.23Zm-7.64,0h3.83a.13.13,0,0,0,.12,0,.17.17,0,0,0,0-.13.21.21,0,0,0,0-.12.17.17,0,0,0-.12,0h-3.83V55.41h4.15a.17.17,0,0,0,.13,0,.17.17,0,0,0,0-.13.18.18,0,0,0,0-.12.21.21,0,0,0-.13,0h-4.32a.16.16,0,0,0-.18.18v8.7a.16.16,0,0,0,.18.18h4.4a.17.17,0,0,0,.12-.05.13.13,0,0,0,0-.12.14.14,0,0,0,0-.13.13.13,0,0,0-.12,0h-4.23Zm-5.62.67a3.39,3.39,0,0,0,1.13-.18,2.55,2.55,0,0,0,.89-.52,2.32,2.32,0,0,0,.57-.82,2.88,2.88,0,0,0,.2-1.1,3,3,0,0,0-.2-1.1,2.52,2.52,0,0,0-.57-.82,2.69,2.69,0,0,0-.89-.51,3.39,3.39,0,0,0-1.13-.18H93.67a.16.16,0,0,0-.18.18V64a.16.16,0,0,0,.18.18c.12,0,.17-.06.17-.18v-3.7Zm-2.09-.35V55.41h2.09a3,3,0,0,1,1,.15,2,2,0,0,1,.77.42,1.93,1.93,0,0,1,.51.71,2.79,2.79,0,0,1,0,2,1.93,1.93,0,0,1-.51.71,2,2,0,0,1-.77.42,3,3,0,0,1-1,.15Zm-3.35.91a2.36,2.36,0,0,0-.58-.74,3.7,3.7,0,0,0-.85-.49,10,10,0,0,0-1-.33c-.3-.09-.59-.18-.86-.28a2.76,2.76,0,0,1-.72-.39,1.72,1.72,0,0,1-.5-.57,1.84,1.84,0,0,1-.18-.85,2,2,0,0,1,.17-.85,1.88,1.88,0,0,1,.47-.61,2.07,2.07,0,0,1,.71-.36,2.73,2.73,0,0,1,.87-.13,2.4,2.4,0,0,1,1.43.38,1.94,1.94,0,0,1,.73,1.06.14.14,0,0,0,0,.08.21.21,0,0,0,.11,0,.18.18,0,0,0,.15-.07.2.2,0,0,0,0-.17,2.16,2.16,0,0,0-.35-.75,1.85,1.85,0,0,0-.56-.52,2.11,2.11,0,0,0-.72-.3,3.44,3.44,0,0,0-.86-.1A3.5,3.5,0,0,0,87,55a2.28,2.28,0,0,0-.82.42,2.17,2.17,0,0,0-.58.72,2.32,2.32,0,0,0-.21,1,2.16,2.16,0,0,0,.22,1,2.12,2.12,0,0,0,.58.68,3,3,0,0,0,.82.43c.3.11.61.21.91.29a7.3,7.3,0,0,1,.9.31,2.55,2.55,0,0,1,.76.43,1.9,1.9,0,0,1,.53.63,2,2,0,0,1,.19.91,2,2,0,0,1-.18.89,1.69,1.69,0,0,1-.5.62,2,2,0,0,1-.75.37,3,3,0,0,1-.91.13,2.71,2.71,0,0,1-1.63-.42,2,2,0,0,1-.78-1.21.24.24,0,0,0-.06-.09.16.16,0,0,0-.11,0,.16.16,0,0,0-.15.07.19.19,0,0,0,0,.15,2.52,2.52,0,0,0,.41.92,2.39,2.39,0,0,0,1.45.87,4.58,4.58,0,0,0,.9.09,3.88,3.88,0,0,0,1-.14,2.48,2.48,0,0,0,.86-.43,2,2,0,0,0,.59-.73,2.36,2.36,0,0,0,.22-1.06,2.46,2.46,0,0,0-.21-1.07M75.06,59.66h3.82a.17.17,0,0,0,.18-.18.17.17,0,0,0-.18-.17H75.06v-3.9h4.15a.13.13,0,0,0,.12,0,.14.14,0,0,0,0-.13.15.15,0,0,0,0-.12.17.17,0,0,0-.12,0H74.89a.16.16,0,0,0-.18.18V64a.16.16,0,0,0,.18.18c.11,0,.17-.06.17-.18Zm-3.81,1.59a4.31,4.31,0,0,1-.8,1.38,3.75,3.75,0,0,1-1.26.95,4.21,4.21,0,0,1-3.36,0,3.89,3.89,0,0,1-1.27-.95,4.28,4.28,0,0,1-.79-1.38,5.11,5.11,0,0,1-.27-1.66,5,5,0,0,1,.27-1.65,4.23,4.23,0,0,1,.79-1.39,3.86,3.86,0,0,1,1.27-.94,4.1,4.1,0,0,1,3.36,0,3.72,3.72,0,0,1,1.26.94,4.25,4.25,0,0,1,.8,1.39,5,5,0,0,1,.27,1.65,5.11,5.11,0,0,1-.27,1.66m-7.8.21a4.54,4.54,0,0,0,.91,1.48,4,4,0,0,0,1.38,1,4.53,4.53,0,0,0,3.54,0,4.09,4.09,0,0,0,1.38-1,4.36,4.36,0,0,0,.9-1.48,5.46,5.46,0,0,0,0-3.74,4.36,4.36,0,0,0-.9-1.48,4.09,4.09,0,0,0-1.38-1,4.53,4.53,0,0,0-3.54,0,4,4,0,0,0-1.38,1,4.54,4.54,0,0,0-.91,1.48,5.62,5.62,0,0,0,0,3.74M53.4,55.19a.16.16,0,0,0-.18-.18c-.12,0-.17.06-.17.18v8.75c0,.12.05.18.17.18h3.94a.17.17,0,0,0,.13-.05.17.17,0,0,0,.05-.12.17.17,0,0,0-.05-.13.14.14,0,0,0-.13,0H53.4Zm-3.82,6.06a4.11,4.11,0,0,1-.79,1.38,3.75,3.75,0,0,1-1.26.95,3.93,3.93,0,0,1-4.63-.95,4.28,4.28,0,0,1-.79-1.38,5.12,5.12,0,0,1-.28-1.66,5,5,0,0,1,.28-1.65,4.23,4.23,0,0,1,.79-1.39,3.93,3.93,0,0,1,1.26-.94,4.12,4.12,0,0,1,3.37,0,3.72,3.72,0,0,1,1.26.94,4.06,4.06,0,0,1,.79,1.39,4.77,4.77,0,0,1,.28,1.65,4.86,4.86,0,0,1-.28,1.66m-7.79.21a4.7,4.7,0,0,0,.9,1.48,4,4,0,0,0,1.39,1,4.28,4.28,0,0,0,1.77.36,4.23,4.23,0,0,0,1.76-.36,4,4,0,0,0,1.39-1,4.52,4.52,0,0,0,.9-1.48,5.46,5.46,0,0,0,0-3.74,4.52,4.52,0,0,0-.9-1.48,4,4,0,0,0-1.39-1,4.23,4.23,0,0,0-1.76-.36,4.28,4.28,0,0,0-1.77.36,4,4,0,0,0-1.39,1,4.7,4.7,0,0,0-.9,1.48,5.62,5.62,0,0,0,0,3.74m-3.33-.21a4.11,4.11,0,0,1-.79,1.38,3.75,3.75,0,0,1-1.26.95,4.23,4.23,0,0,1-3.37,0,3.85,3.85,0,0,1-1.26-.95A4.28,4.28,0,0,1,31,61.25a4.86,4.86,0,0,1-.28-1.66A4.77,4.77,0,0,1,31,57.94a4.23,4.23,0,0,1,.79-1.39,4,4,0,0,1,4.63-.94,3.72,3.72,0,0,1,1.26.94,4.06,4.06,0,0,1,.79,1.39,4.77,4.77,0,0,1,.28,1.65,4.86,4.86,0,0,1-.28,1.66m-7.79.21a4.7,4.7,0,0,0,.9,1.48,4,4,0,0,0,1.39,1,4.28,4.28,0,0,0,1.77.36,4.23,4.23,0,0,0,1.76-.36,4,4,0,0,0,1.39-1,4.7,4.7,0,0,0,.9-1.48,5.62,5.62,0,0,0,0-3.74,4.7,4.7,0,0,0-.9-1.48,4,4,0,0,0-1.39-1,4.23,4.23,0,0,0-1.76-.36,4.28,4.28,0,0,0-1.77.36,4,4,0,0,0-1.39,1,4.7,4.7,0,0,0-.9,1.48,5.62,5.62,0,0,0,0,3.74M27.17,64a.18.18,0,0,0,.36,0v-8.8a.18.18,0,1,0-.36,0v4.08H21.26V55.19c0-.12-.06-.18-.17-.18a.16.16,0,0,0-.18.18V64a.16.16,0,0,0,.18.18c.11,0,.17-.06.17-.18V59.62h5.91Zm-14.48-.41a3.89,3.89,0,0,1-1.27-.95,4.48,4.48,0,0,1-.79-1.38,5.11,5.11,0,0,1-.27-1.66,5,5,0,0,1,.27-1.65,4.41,4.41,0,0,1,.79-1.39,3.9,3.9,0,0,1,2.95-1.3,4.19,4.19,0,0,1,1.2.17,3.77,3.77,0,0,1,1,.47,3,3,0,0,1,.74.72,3.23,3.23,0,0,1,.47.9.14.14,0,0,0,.15.1.2.2,0,0,0,.15-.06.2.2,0,0,0,0-.17,3.53,3.53,0,0,0-.52-1,3.75,3.75,0,0,0-.81-.78,3.84,3.84,0,0,0-1.08-.51,4.23,4.23,0,0,0-1.31-.19,4.31,4.31,0,0,0-1.77.36,4,4,0,0,0-1.38,1,4.54,4.54,0,0,0-.91,1.48,5.62,5.62,0,0,0,0,3.74,4.54,4.54,0,0,0,.91,1.48,4,4,0,0,0,1.38,1,4.31,4.31,0,0,0,1.77.36,4.56,4.56,0,0,0,1.31-.18,4.16,4.16,0,0,0,1.08-.52,3.46,3.46,0,0,0,.83-.79,3.4,3.4,0,0,0,.52-1,.21.21,0,0,0,0-.18.2.2,0,0,0-.15-.06.14.14,0,0,0-.15.1,3.15,3.15,0,0,1-.47.91,3.4,3.4,0,0,1-1.75,1.2,4.19,4.19,0,0,1-1.2.17,4,4,0,0,1-1.68-.35M7.58,60.85A2.25,2.25,0,0,0,7,60.11a3.44,3.44,0,0,0-.84-.49,9.38,9.38,0,0,0-1-.33c-.29-.09-.58-.18-.85-.28a2.76,2.76,0,0,1-.72-.39,1.72,1.72,0,0,1-.5-.57,1.84,1.84,0,0,1-.18-.85,1.8,1.8,0,0,1,.64-1.46,2,2,0,0,1,.7-.36,2.84,2.84,0,0,1,.88-.13,2.43,2.43,0,0,1,1.43.38,1.94,1.94,0,0,1,.73,1.06.1.1,0,0,0,0,.08.21.21,0,0,0,.11,0,.21.21,0,0,0,.15-.07.2.2,0,0,0,0-.17,2.36,2.36,0,0,0-.35-.75,2,2,0,0,0-.56-.52A2.2,2.2,0,0,0,6,55a3.44,3.44,0,0,0-.86-.1,3.5,3.5,0,0,0-1,.14,2.28,2.28,0,0,0-.82.42,2.17,2.17,0,0,0-.58.72,2.32,2.32,0,0,0-.21,1,2.16,2.16,0,0,0,.22,1,2.12,2.12,0,0,0,.58.68,3,3,0,0,0,.82.43c.3.11.6.21.91.29A7.93,7.93,0,0,1,6,60a2.68,2.68,0,0,1,.76.43,1.9,1.9,0,0,1,.53.63,2,2,0,0,1,.19.91,2,2,0,0,1-.18.89,1.69,1.69,0,0,1-.5.62A2,2,0,0,1,6,63.8a3,3,0,0,1-.91.13,2.71,2.71,0,0,1-1.63-.42,2,2,0,0,1-.79-1.21.2.2,0,0,0,0-.09.16.16,0,0,0-.11,0,.16.16,0,0,0-.15.07.19.19,0,0,0,0,.15,2.52,2.52,0,0,0,.41.92,2.19,2.19,0,0,0,.65.57,2.21,2.21,0,0,0,.8.3,4.43,4.43,0,0,0,.9.09,3.88,3.88,0,0,0,1-.14A2.57,2.57,0,0,0,7,63.71,2,2,0,0,0,7.57,63a2.36,2.36,0,0,0,.22-1.06,2.46,2.46,0,0,0-.21-1.07" transform="translate(-1.83 -1.44)"/><path class="cls-2" d="M367.35,63.77l-5.61-8.64a.17.17,0,0,0-.14-.07h-.51c-.11,0-.17.06-.17.18V64c0,.12.06.18.17.18a.16.16,0,0,0,.18-.18V55.41h.24l5.61,8.64a.15.15,0,0,0,.06,0l.08,0h.46a.16.16,0,0,0,.18-.18V55.19a.18.18,0,0,0-.36,0v8.58Zm-9.89-2.52a4.31,4.31,0,0,1-.8,1.38,3.75,3.75,0,0,1-1.26.95,4,4,0,0,1-1.68.35,3.81,3.81,0,0,1-3-1.3,4.28,4.28,0,0,1-.79-1.38,5.11,5.11,0,0,1-.27-1.66,5,5,0,0,1,.27-1.65,4.23,4.23,0,0,1,.79-1.39,3.86,3.86,0,0,1,1.27-.94,3.77,3.77,0,0,1,1.68-.36,3.83,3.83,0,0,1,1.68.36,3.72,3.72,0,0,1,1.26.94,4.25,4.25,0,0,1,.8,1.39,5,5,0,0,1,.27,1.65A5.11,5.11,0,0,1,357.46,61.25Zm-7.8.21a4.54,4.54,0,0,0,.91,1.48,3.9,3.9,0,0,0,1.38,1,4.53,4.53,0,0,0,3.54,0,4.09,4.09,0,0,0,1.38-1,4.36,4.36,0,0,0,.9-1.48,5.46,5.46,0,0,0,0-3.74,4.36,4.36,0,0,0-.9-1.48,4.09,4.09,0,0,0-1.38-1,4.53,4.53,0,0,0-3.54,0,3.9,3.9,0,0,0-1.38,1,4.54,4.54,0,0,0-.91,1.48,5.62,5.62,0,0,0,0,3.74Zm-9.49-6.05h2.07a6.06,6.06,0,0,1,1.89.28,3.69,3.69,0,0,1,1.37.82,3.54,3.54,0,0,1,.83,1.31,5.73,5.73,0,0,1,0,3.54,3.54,3.54,0,0,1-.83,1.31,3.69,3.69,0,0,1-1.37.82,6.06,6.06,0,0,1-1.89.28h-2.07Zm2.07,8.71a6.19,6.19,0,0,0,1.92-.28,3.94,3.94,0,0,0,1.49-.83,3.8,3.8,0,0,0,1-1.42,5.26,5.26,0,0,0,.35-2,5.35,5.35,0,0,0-.35-2,3.69,3.69,0,0,0-1-1.41,3.83,3.83,0,0,0-1.49-.84,6.5,6.5,0,0,0-1.92-.27H340c-.12,0-.17.06-.17.18v8.7c0,.12.05.18.17.18ZM336,63.77l-5.61-8.64a.16.16,0,0,0-.14-.07h-.5a.16.16,0,0,0-.18.18V64a.16.16,0,0,0,.18.18c.11,0,.17-.06.17-.18V55.41h.24l5.61,8.64.06,0,.08,0h.46a.16.16,0,0,0,.18-.18V55.19a.18.18,0,0,0-.36,0v8.58Zm-9.89-2.52a4.48,4.48,0,0,1-.79,1.38,3.89,3.89,0,0,1-1.27.95,4.21,4.21,0,0,1-3.36,0,3.89,3.89,0,0,1-1.27-.95,4.48,4.48,0,0,1-.79-1.38,5.11,5.11,0,0,1-.27-1.66,5,5,0,0,1,.27-1.65,4.41,4.41,0,0,1,.79-1.39,3.86,3.86,0,0,1,1.27-.94,4.1,4.1,0,0,1,3.36,0,3.86,3.86,0,0,1,1.27.94,4.41,4.41,0,0,1,.79,1.39,5,5,0,0,1,.27,1.65A5.11,5.11,0,0,1,326.1,61.25Zm-7.8.21a4.54,4.54,0,0,0,.91,1.48,4,4,0,0,0,1.38,1,4.53,4.53,0,0,0,3.54,0,4,4,0,0,0,1.38-1,4.36,4.36,0,0,0,.9-1.48,5.46,5.46,0,0,0,0-3.74,4.36,4.36,0,0,0-.9-1.48,4,4,0,0,0-1.38-1,4.53,4.53,0,0,0-3.54,0,4,4,0,0,0-1.38,1,4.54,4.54,0,0,0-.91,1.48,5.62,5.62,0,0,0,0,3.74Zm-5.52-6.27c0-.12,0-.18-.17-.18a.16.16,0,0,0-.18.18v8.75a.16.16,0,0,0,.18.18h3.94a.21.21,0,0,0,.13-.05.16.16,0,0,0,0-.12.17.17,0,0,0,0-.13.17.17,0,0,0-.13,0h-3.77Zm-10.85,4.47h3.83a.21.21,0,0,0,.12,0,.21.21,0,0,0,.05-.13.17.17,0,0,0-.05-.12.16.16,0,0,0-.12,0h-3.83v-3.9h4.15a.13.13,0,0,0,.12,0,.14.14,0,0,0,.05-.13.15.15,0,0,0-.05-.12.17.17,0,0,0-.12,0h-4.32a.16.16,0,0,0-.18.18V64a.16.16,0,0,0,.18.18c.11,0,.17-.06.17-.18Zm-3.81,1.59a4.48,4.48,0,0,1-.79,1.38,3.89,3.89,0,0,1-1.27.95,4.21,4.21,0,0,1-3.36,0,3.89,3.89,0,0,1-1.27-.95,4.48,4.48,0,0,1-.79-1.38,5.11,5.11,0,0,1-.27-1.66,5,5,0,0,1,.27-1.65,4.41,4.41,0,0,1,.79-1.39,3.9,3.9,0,0,1,2.95-1.3,3.8,3.8,0,0,1,1.68.36,3.86,3.86,0,0,1,1.27.94,4.41,4.41,0,0,1,.79,1.39,5,5,0,0,1,.27,1.65A5.11,5.11,0,0,1,298.12,61.25Zm-7.79.21a4.36,4.36,0,0,0,.9,1.48,4,4,0,0,0,1.38,1,4.53,4.53,0,0,0,3.54,0,4,4,0,0,0,1.38-1,4.54,4.54,0,0,0,.91-1.48,5.62,5.62,0,0,0,0-3.74,4.54,4.54,0,0,0-.91-1.48,4,4,0,0,0-1.38-1,4.53,4.53,0,0,0-3.54,0,4,4,0,0,0-1.38,1,4.36,4.36,0,0,0-.9,1.48,5.46,5.46,0,0,0,0,3.74ZM281.19,64a.18.18,0,0,0,.36,0V60.13l3.06-4.85a.19.19,0,0,0,0-.18.17.17,0,0,0-.16-.09.16.16,0,0,0-.15.09l-2.93,4.65-2.9-4.65a.17.17,0,0,0-.3,0,.17.17,0,0,0,0,.18l3,4.85Zm-4.75-8.58a.13.13,0,0,0,.12,0,.17.17,0,0,0,.05-.13.18.18,0,0,0-.05-.12.17.17,0,0,0-.12,0h-6a.17.17,0,0,0-.12,0,.18.18,0,0,0-.05.12.17.17,0,0,0,.05.13.13.13,0,0,0,.12,0h2.84V64c0,.12.06.18.17.18a.16.16,0,0,0,.18-.18V55.41Zm-9-.22V64c0,.12.06.18.17.18a.16.16,0,0,0,.18-.18v-8.8a.16.16,0,0,0-.18-.18C267.46,55,267.4,55.07,267.4,55.19Zm-3,5.66a2.22,2.22,0,0,0-.58-.74,3.5,3.5,0,0,0-.85-.49,10,10,0,0,0-1-.33c-.3-.09-.58-.18-.85-.28a2.47,2.47,0,0,1-.72-.39,1.61,1.61,0,0,1-.5-.57,1.84,1.84,0,0,1-.19-.85,1.87,1.87,0,0,1,.18-.85,1.76,1.76,0,0,1,.47-.61,2,2,0,0,1,.7-.36,2.75,2.75,0,0,1,.88-.13,2.43,2.43,0,0,1,1.43.38,1.93,1.93,0,0,1,.72,1.06.16.16,0,0,0,.06.08.18.18,0,0,0,.11,0,.17.17,0,0,0,.14-.07.2.2,0,0,0,0-.17,2.36,2.36,0,0,0-.35-.75,2,2,0,0,0-.56-.52,2.25,2.25,0,0,0-.73-.3,3.36,3.36,0,0,0-.85-.1,3.45,3.45,0,0,0-1,.14,2.32,2.32,0,0,0-.83.42,2,2,0,0,0-.57.72,2.19,2.19,0,0,0-.22,1,2.16,2.16,0,0,0,.23,1,2,2,0,0,0,.58.68,3.13,3.13,0,0,0,.81.43c.31.11.61.21.92.29a8.67,8.67,0,0,1,.9.31,2.68,2.68,0,0,1,.76.43,1.87,1.87,0,0,1,.52.63,2,2,0,0,1,.2.91,2,2,0,0,1-.18.89,1.72,1.72,0,0,1-.51.62,2.06,2.06,0,0,1-.74.37,3,3,0,0,1-.91.13,2.74,2.74,0,0,1-1.64-.42,2.08,2.08,0,0,1-.78-1.21.41.41,0,0,0-.05-.09.2.2,0,0,0-.11,0,.16.16,0,0,0-.15.07.19.19,0,0,0,0,.15,2.36,2.36,0,0,0,.41.92,2.16,2.16,0,0,0,.64.57,2.33,2.33,0,0,0,.81.3,4.43,4.43,0,0,0,.9.09,3.81,3.81,0,0,0,1-.14,2.53,2.53,0,0,0,.87-.43,2.11,2.11,0,0,0,.59-.73,2.36,2.36,0,0,0,.22-1.06A2.32,2.32,0,0,0,264.39,60.85ZM254,60.17l2.87,3.92a.16.16,0,0,0,.13.08.17.17,0,0,0,.17-.1.21.21,0,0,0,0-.19l-2.74-3.74a3.17,3.17,0,0,0,.93-.23,2.23,2.23,0,0,0,.74-.51,2.28,2.28,0,0,0,.5-.77,2.89,2.89,0,0,0,.18-1.05,2.78,2.78,0,0,0-.2-1.06,2.39,2.39,0,0,0-.57-.79,2.53,2.53,0,0,0-.86-.5,3.6,3.6,0,0,0-1.12-.17h-2.35a.16.16,0,0,0-.18.18V64a.16.16,0,0,0,.18.18c.11,0,.17-.06.17-.18V60.17Zm-2.18-4.75H254a2.88,2.88,0,0,1,1,.16,2,2,0,0,1,.75.44,1.8,1.8,0,0,1,.45.69,2.21,2.21,0,0,1,.16.87,2.55,2.55,0,0,1-.17,1,2.06,2.06,0,0,1-.49.7,2.11,2.11,0,0,1-.76.44,2.93,2.93,0,0,1-1,.15h-2.18Zm-7.34,4.2h3.82a.13.13,0,0,0,.12,0,.14.14,0,0,0,.05-.13.16.16,0,0,0-.05-.12.17.17,0,0,0-.12,0h-3.82V55.41h4.14a.14.14,0,0,0,.13,0,.17.17,0,0,0,0-.13.18.18,0,0,0,0-.12.17.17,0,0,0-.13,0h-4.32c-.12,0-.17.06-.17.18v8.7c0,.12,0,.18.17.18h4.4a.19.19,0,0,0,.13-.05.17.17,0,0,0,.05-.12.17.17,0,0,0-.05-.13.15.15,0,0,0-.13,0h-4.22Zm-6.07,4.5a.17.17,0,0,0,.17-.12l3.11-8.75a.18.18,0,0,0-.17-.24.15.15,0,0,0-.16.12l-3.07,8.64h-.41l-3.05-8.63a.22.22,0,0,0-.07-.09.18.18,0,0,0-.1,0,.16.16,0,0,0-.15.08.18.18,0,0,0,0,.16L237.59,64a.17.17,0,0,0,.16.12Zm-6.71-8.93V64c0,.12.06.18.17.18A.16.16,0,0,0,232,64v-8.8a.16.16,0,0,0-.18-.18C231.75,55,231.69,55.07,231.69,55.19Zm-3.83,8.58-5.6-8.64a.18.18,0,0,0-.15-.07h-.5a.16.16,0,0,0-.18.18V64a.16.16,0,0,0,.18.18c.12,0,.17-.06.17-.18V55.41H222l5.61,8.64a.18.18,0,0,0,.07,0l.07,0h.46a.16.16,0,0,0,.18-.18V55.19a.16.16,0,0,0-.18-.18c-.12,0-.17.06-.17.18v8.58Zm-14,0a2.39,2.39,0,0,1-.89-.59,2.43,2.43,0,0,1-.57-.93,3.38,3.38,0,0,1-.2-1.23V55.19a.18.18,0,1,0-.36,0V61a4.23,4.23,0,0,0,.22,1.37,3.12,3.12,0,0,0,.63,1,3,3,0,0,0,1,.66,4,4,0,0,0,2.68,0,3,3,0,0,0,1-.66,3.12,3.12,0,0,0,.63-1,4,4,0,0,0,.22-1.37V55.19a.18.18,0,1,0-.36,0V61a3.61,3.61,0,0,1-.19,1.23,2.7,2.7,0,0,1-.57.93,2.52,2.52,0,0,1-.9.59,3.52,3.52,0,0,1-2.34,0Zm-10.21-4.58a1,1,0,0,1,.2-.32,1.34,1.34,0,0,1,.3-.21,1,1,0,0,1,.4-.08,1,1,0,0,1,.39.08,1.14,1.14,0,0,1,.3.21,1,1,0,0,1,.2.32,1,1,0,0,1,.07.39,1.07,1.07,0,0,1-.07.39.92.92,0,0,1-.2.31.81.81,0,0,1-.3.21.85.85,0,0,1-.39.08.87.87,0,0,1-.4-.08.9.9,0,0,1-.3-.21.92.92,0,0,1-.2-.31,1.34,1.34,0,0,1-.07-.39A1.23,1.23,0,0,1,203.65,59.15Zm-.32.92a1.32,1.32,0,0,0,.27.42,1.19,1.19,0,0,0,.42.28,1.31,1.31,0,0,0,1,0,1.19,1.19,0,0,0,.42-.28,1.34,1.34,0,0,0,.28-.42,1.56,1.56,0,0,0,.1-.53,1.51,1.51,0,0,0-.1-.53,1.28,1.28,0,0,0-.28-.43,1.34,1.34,0,0,0-.42-.28,1.3,1.3,0,0,0-.52-.1,1.32,1.32,0,0,0-.53.1,1.34,1.34,0,0,0-.42.28,1.26,1.26,0,0,0-.27.43,1.32,1.32,0,0,0-.11.53A1.36,1.36,0,0,0,203.33,60.07Zm-8.73-4.66,1.88,5.25H192.3l1.89-5.25Zm-.53-.35a.18.18,0,0,0-.17.12l-3.14,8.75a.18.18,0,0,0,0,.16.16.16,0,0,0,.15.08.13.13,0,0,0,.1,0,.22.22,0,0,0,.07-.09l1.08-3h4.43l1.08,3a.16.16,0,0,0,.16.12.21.21,0,0,0,.15-.07.17.17,0,0,0,0-.17l-3.14-8.75a.17.17,0,0,0-.17-.12ZM188,64a.2.2,0,0,0,0,.13.21.21,0,0,0,.13,0,.17.17,0,0,0,.17-.18V55.23a.15.15,0,0,0,0-.12.17.17,0,0,0-.12,0h-.61a.19.19,0,0,0-.17.09l-3.25,6.32H184l-3.38-6.32a.16.16,0,0,0-.15-.09h-.62a.17.17,0,0,0-.12,0,.18.18,0,0,0,0,.12V64a.21.21,0,0,0,0,.13.17.17,0,0,0,.12,0,.19.19,0,0,0,.13,0A.21.21,0,0,0,180,64V55.41h.34l3.38,6.31a.15.15,0,0,0,.15.1h.32a.16.16,0,0,0,.16-.1l3.25-6.31H188Zm-14.16-8.58,1.88,5.25h-4.18l1.89-5.25Zm-.53-.35a.17.17,0,0,0-.17.12L170,63.93a.18.18,0,0,0,0,.16.16.16,0,0,0,.15.08.13.13,0,0,0,.1,0,.22.22,0,0,0,.07-.09l1.08-3h4.43l1.08,3a.16.16,0,0,0,.16.12.21.21,0,0,0,.15-.07.2.2,0,0,0,0-.17l-3.14-8.75a.17.17,0,0,0-.17-.12Zm-8.22,5.11L168,64.09a.16.16,0,0,0,.13.08.16.16,0,0,0,.16-.1.19.19,0,0,0,0-.19l-2.74-3.74a3.17,3.17,0,0,0,.93-.23,2.23,2.23,0,0,0,.74-.51,2.26,2.26,0,0,0,.49-.77,2.89,2.89,0,0,0,.18-1.05,2.6,2.6,0,0,0-.2-1.06,2.23,2.23,0,0,0-.56-.79,2.48,2.48,0,0,0-.87-.5,3.5,3.5,0,0,0-1.11-.17h-2.36c-.11,0-.17.06-.17.18V64c0,.12.06.18.17.18a.16.16,0,0,0,.18-.18V60.17Zm-2.17-4.75h2.18a3,3,0,0,1,1,.16,2,2,0,0,1,.75.44,1.8,1.8,0,0,1,.45.69,2.41,2.41,0,0,1,.16.87,2.37,2.37,0,0,1-.18,1,1.93,1.93,0,0,1-.49.7,2.07,2.07,0,0,1-.75.44,2.93,2.93,0,0,1-1,.15H162.9Zm-10,0H155a6.06,6.06,0,0,1,1.89.28,3.69,3.69,0,0,1,1.37.82,3.54,3.54,0,0,1,.83,1.31,5.73,5.73,0,0,1,0,3.54,3.54,3.54,0,0,1-.83,1.31,3.69,3.69,0,0,1-1.37.82,6.06,6.06,0,0,1-1.89.28h-2.07ZM155,64.12a6.08,6.08,0,0,0,1.91-.28,3.91,3.91,0,0,0,1.5-.83,3.8,3.8,0,0,0,1-1.42,5.26,5.26,0,0,0,.35-2,5.35,5.35,0,0,0-.35-2,3.69,3.69,0,0,0-1-1.41,3.8,3.8,0,0,0-1.5-.84,6.39,6.39,0,0,0-1.91-.27h-2.25c-.12,0-.17.06-.17.18v8.7c0,.12.05.18.17.18Zm-13.5-5.74a2.85,2.85,0,0,1-.25-.33,2.82,2.82,0,0,1-.21-.38,2.21,2.21,0,0,1-.14-.41,1.63,1.63,0,0,1,0-.43,1.65,1.65,0,0,1,.13-.68,1.46,1.46,0,0,1,.35-.49,1.58,1.58,0,0,1,.52-.3,1.84,1.84,0,0,1,.62-.11,1.8,1.8,0,0,1,.62.11,1.58,1.58,0,0,1,.52.3,1.33,1.33,0,0,1,.35.49,1.65,1.65,0,0,1,.13.68,1.67,1.67,0,0,1-.13.67,2.18,2.18,0,0,1-.37.58,4.11,4.11,0,0,1-.61.54c-.23.18-.5.36-.8.55Zm-1.12,2.82a2.7,2.7,0,0,1,.43-.63,4.4,4.4,0,0,1,.61-.52l.68-.44,2.73,3.12a3.1,3.1,0,0,1-1,.87,2.71,2.71,0,0,1-1.36.33,2.63,2.63,0,0,1-.84-.13,2.28,2.28,0,0,1-.73-.37,1.78,1.78,0,0,1-.5-.62,1.75,1.75,0,0,1-.19-.85A1.6,1.6,0,0,1,140.37,61.2ZM144.28,56a1.65,1.65,0,0,0-.45-.61,1.77,1.77,0,0,0-.63-.35,2.34,2.34,0,0,0-1.48,0,1.86,1.86,0,0,0-.63.35,1.76,1.76,0,0,0-.45.61,2.18,2.18,0,0,0-.1,1.33,2.6,2.6,0,0,0,.16.47,2.3,2.3,0,0,0,.23.44,3.17,3.17,0,0,0,.29.4l.65.73q-.42.26-.78.51a3.45,3.45,0,0,0-.63.57,2.34,2.34,0,0,0-.44.68,2.12,2.12,0,0,0-.19.85,2.31,2.31,0,0,0,.22,1,2.22,2.22,0,0,0,.57.72,2.54,2.54,0,0,0,.83.44,3.33,3.33,0,0,0,1,.15,3.13,3.13,0,0,0,1.5-.35,3.54,3.54,0,0,0,1.1-.93l1,1.1a.19.19,0,0,0,.14.07.16.16,0,0,0,.16-.11.19.19,0,0,0,0-.19l-1-1.17a4.64,4.64,0,0,0,.49-1,6,6,0,0,0,.26-1.13c0-.14-.05-.21-.19-.21a.15.15,0,0,0-.16.14,5,5,0,0,1-.22,1,3.73,3.73,0,0,1-.42.93l-2.63-3a7.81,7.81,0,0,0,.79-.54,4.2,4.2,0,0,0,.66-.59,2.59,2.59,0,0,0,.43-.68,1.85,1.85,0,0,0,.16-.78A2,2,0,0,0,144.28,56Zm-11.35,8a.18.18,0,1,0,.36,0v-8.8a.18.18,0,1,0-.36,0v4.08H127V55.19c0-.12-.06-.18-.17-.18a.16.16,0,0,0-.18.18V64a.16.16,0,0,0,.18.18c.11,0,.17-.06.17-.18V59.62h5.91Zm-14.48-.41a3.89,3.89,0,0,1-1.27-.95,4.48,4.48,0,0,1-.79-1.38,5.11,5.11,0,0,1-.27-1.66,5,5,0,0,1,.27-1.65,4.41,4.41,0,0,1,.79-1.39,3.9,3.9,0,0,1,2.95-1.3,4.19,4.19,0,0,1,1.2.17,3.77,3.77,0,0,1,1,.47,3,3,0,0,1,.74.72,3.23,3.23,0,0,1,.47.9.14.14,0,0,0,.15.1.2.2,0,0,0,.15-.06.2.2,0,0,0,0-.17,3.53,3.53,0,0,0-.52-1,3.75,3.75,0,0,0-.81-.78,3.84,3.84,0,0,0-1.08-.51,4.23,4.23,0,0,0-1.31-.19,4.31,4.31,0,0,0-1.77.36,4,4,0,0,0-1.38,1,4.54,4.54,0,0,0-.91,1.48,5.62,5.62,0,0,0,0,3.74,4.54,4.54,0,0,0,.91,1.48,4,4,0,0,0,1.38,1,4.31,4.31,0,0,0,1.77.36,4.56,4.56,0,0,0,1.31-.18,4.16,4.16,0,0,0,1.08-.52,3.46,3.46,0,0,0,.83-.79,3.4,3.4,0,0,0,.52-1,.21.21,0,0,0,0-.18.2.2,0,0,0-.15-.06.14.14,0,0,0-.15.1,3.15,3.15,0,0,1-.47.91,3.4,3.4,0,0,1-1.75,1.2,4.19,4.19,0,0,1-1.2.17A4,4,0,0,1,118.45,63.58Zm-9.26-4H113a.16.16,0,0,0,.12,0,.17.17,0,0,0,0-.13.17.17,0,0,0-.17-.17h-3.83V55.41h4.15a.13.13,0,0,0,.12,0,.14.14,0,0,0,.05-.13.15.15,0,0,0-.05-.12.17.17,0,0,0-.12,0H109a.16.16,0,0,0-.18.18v8.7a.16.16,0,0,0,.18.18h4.4a.17.17,0,0,0,.12-.05.13.13,0,0,0,0-.12.14.14,0,0,0,0-.13.13.13,0,0,0-.12,0h-4.23Zm-7.64,0h3.83a.13.13,0,0,0,.12,0,.17.17,0,0,0,0-.13.21.21,0,0,0,0-.12.17.17,0,0,0-.12,0h-3.83V55.41h4.15a.17.17,0,0,0,.13,0,.17.17,0,0,0,0-.13.18.18,0,0,0,0-.12.21.21,0,0,0-.13,0h-4.32a.16.16,0,0,0-.18.18v8.7a.16.16,0,0,0,.18.18h4.4a.17.17,0,0,0,.12-.05.13.13,0,0,0,0-.12.14.14,0,0,0,0-.13.13.13,0,0,0-.12,0h-4.23Zm-5.62.67a3.39,3.39,0,0,0,1.13-.18,2.55,2.55,0,0,0,.89-.52,2.32,2.32,0,0,0,.57-.82,2.88,2.88,0,0,0,.2-1.1,3,3,0,0,0-.2-1.1,2.52,2.52,0,0,0-.57-.82,2.69,2.69,0,0,0-.89-.51,3.39,3.39,0,0,0-1.13-.18H93.67a.16.16,0,0,0-.18.18V64a.16.16,0,0,0,.18.18c.12,0,.17-.06.17-.18v-3.7Zm-2.09-.35V55.41h2.09a3,3,0,0,1,1,.15,2,2,0,0,1,.77.42,1.93,1.93,0,0,1,.51.71,2.79,2.79,0,0,1,0,2,1.93,1.93,0,0,1-.51.71,2,2,0,0,1-.77.42,3,3,0,0,1-1,.15Zm-3.35.91a2.36,2.36,0,0,0-.58-.74,3.7,3.7,0,0,0-.85-.49,10,10,0,0,0-1-.33c-.3-.09-.59-.18-.86-.28a2.76,2.76,0,0,1-.72-.39,1.72,1.72,0,0,1-.5-.57,1.84,1.84,0,0,1-.18-.85,2,2,0,0,1,.17-.85,1.88,1.88,0,0,1,.47-.61,2.07,2.07,0,0,1,.71-.36,2.73,2.73,0,0,1,.87-.13,2.4,2.4,0,0,1,1.43.38,1.94,1.94,0,0,1,.73,1.06.14.14,0,0,0,0,.08.21.21,0,0,0,.11,0,.18.18,0,0,0,.15-.07.2.2,0,0,0,0-.17,2.16,2.16,0,0,0-.35-.75,1.85,1.85,0,0,0-.56-.52,2.11,2.11,0,0,0-.72-.3,3.44,3.44,0,0,0-.86-.1A3.5,3.5,0,0,0,87,55a2.28,2.28,0,0,0-.82.42,2.17,2.17,0,0,0-.58.72,2.32,2.32,0,0,0-.21,1,2.16,2.16,0,0,0,.22,1,2.12,2.12,0,0,0,.58.68,3,3,0,0,0,.82.43c.3.11.61.21.91.29a7.3,7.3,0,0,1,.9.31,2.55,2.55,0,0,1,.76.43,1.9,1.9,0,0,1,.53.63,2,2,0,0,1,.19.91,2,2,0,0,1-.18.89,1.69,1.69,0,0,1-.5.62,2,2,0,0,1-.75.37,3,3,0,0,1-.91.13,2.71,2.71,0,0,1-1.63-.42,2,2,0,0,1-.78-1.21.24.24,0,0,0-.06-.09.16.16,0,0,0-.11,0,.16.16,0,0,0-.15.07.19.19,0,0,0,0,.15,2.52,2.52,0,0,0,.41.92,2.39,2.39,0,0,0,1.45.87,4.58,4.58,0,0,0,.9.09,3.88,3.88,0,0,0,1-.14,2.48,2.48,0,0,0,.86-.43,2,2,0,0,0,.59-.73,2.36,2.36,0,0,0,.22-1.06A2.46,2.46,0,0,0,90.49,60.85ZM75.06,59.66h3.82a.17.17,0,0,0,.18-.18.17.17,0,0,0-.18-.17H75.06v-3.9h4.15a.13.13,0,0,0,.12,0,.14.14,0,0,0,0-.13.15.15,0,0,0,0-.12.17.17,0,0,0-.12,0H74.89a.16.16,0,0,0-.18.18V64a.16.16,0,0,0,.18.18c.11,0,.17-.06.17-.18Zm-3.81,1.59a4.31,4.31,0,0,1-.8,1.38,3.75,3.75,0,0,1-1.26.95,4.21,4.21,0,0,1-3.36,0,3.89,3.89,0,0,1-1.27-.95,4.28,4.28,0,0,1-.79-1.38,5.11,5.11,0,0,1-.27-1.66,5,5,0,0,1,.27-1.65,4.23,4.23,0,0,1,.79-1.39,3.86,3.86,0,0,1,1.27-.94,4.1,4.1,0,0,1,3.36,0,3.72,3.72,0,0,1,1.26.94,4.25,4.25,0,0,1,.8,1.39,5,5,0,0,1,.27,1.65A5.11,5.11,0,0,1,71.25,61.25Zm-7.8.21a4.54,4.54,0,0,0,.91,1.48,4,4,0,0,0,1.38,1,4.53,4.53,0,0,0,3.54,0,4.09,4.09,0,0,0,1.38-1,4.36,4.36,0,0,0,.9-1.48,5.46,5.46,0,0,0,0-3.74,4.36,4.36,0,0,0-.9-1.48,4.09,4.09,0,0,0-1.38-1,4.53,4.53,0,0,0-3.54,0,4,4,0,0,0-1.38,1,4.54,4.54,0,0,0-.91,1.48,5.62,5.62,0,0,0,0,3.74ZM53.4,55.19a.16.16,0,0,0-.18-.18c-.12,0-.17.06-.17.18v8.75c0,.12.05.18.17.18h3.94a.17.17,0,0,0,.13-.05.17.17,0,0,0,.05-.12.17.17,0,0,0-.05-.13.14.14,0,0,0-.13,0H53.4Zm-3.82,6.06a4.11,4.11,0,0,1-.79,1.38,3.75,3.75,0,0,1-1.26.95,3.93,3.93,0,0,1-4.63-.95,4.28,4.28,0,0,1-.79-1.38,5.12,5.12,0,0,1-.28-1.66,5,5,0,0,1,.28-1.65,4.23,4.23,0,0,1,.79-1.39,3.93,3.93,0,0,1,1.26-.94,4.12,4.12,0,0,1,3.37,0,3.72,3.72,0,0,1,1.26.94,4.06,4.06,0,0,1,.79,1.39,4.77,4.77,0,0,1,.28,1.65A4.86,4.86,0,0,1,49.58,61.25Zm-7.79.21a4.7,4.7,0,0,0,.9,1.48,4,4,0,0,0,1.39,1,4.28,4.28,0,0,0,1.77.36,4.23,4.23,0,0,0,1.76-.36,4,4,0,0,0,1.39-1,4.52,4.52,0,0,0,.9-1.48,5.46,5.46,0,0,0,0-3.74,4.52,4.52,0,0,0-.9-1.48,4,4,0,0,0-1.39-1,4.23,4.23,0,0,0-1.76-.36,4.28,4.28,0,0,0-1.77.36,4,4,0,0,0-1.39,1,4.7,4.7,0,0,0-.9,1.48,5.62,5.62,0,0,0,0,3.74Zm-3.33-.21a4.11,4.11,0,0,1-.79,1.38,3.75,3.75,0,0,1-1.26.95,4.23,4.23,0,0,1-3.37,0,3.85,3.85,0,0,1-1.26-.95A4.28,4.28,0,0,1,31,61.25a4.86,4.86,0,0,1-.28-1.66A4.77,4.77,0,0,1,31,57.94a4.23,4.23,0,0,1,.79-1.39,4,4,0,0,1,4.63-.94,3.72,3.72,0,0,1,1.26.94,4.06,4.06,0,0,1,.79,1.39,4.77,4.77,0,0,1,.28,1.65A4.86,4.86,0,0,1,38.46,61.25Zm-7.79.21a4.7,4.7,0,0,0,.9,1.48,4,4,0,0,0,1.39,1,4.28,4.28,0,0,0,1.77.36,4.23,4.23,0,0,0,1.76-.36,4,4,0,0,0,1.39-1,4.7,4.7,0,0,0,.9-1.48,5.62,5.62,0,0,0,0-3.74,4.7,4.7,0,0,0-.9-1.48,4,4,0,0,0-1.39-1,4.23,4.23,0,0,0-1.76-.36,4.28,4.28,0,0,0-1.77.36,4,4,0,0,0-1.39,1,4.7,4.7,0,0,0-.9,1.48,5.62,5.62,0,0,0,0,3.74ZM27.17,64a.18.18,0,0,0,.36,0v-8.8a.18.18,0,1,0-.36,0v4.08H21.26V55.19c0-.12-.06-.18-.17-.18a.16.16,0,0,0-.18.18V64a.16.16,0,0,0,.18.18c.11,0,.17-.06.17-.18V59.62h5.91Zm-14.48-.41a3.89,3.89,0,0,1-1.27-.95,4.48,4.48,0,0,1-.79-1.38,5.11,5.11,0,0,1-.27-1.66,5,5,0,0,1,.27-1.65,4.41,4.41,0,0,1,.79-1.39,3.9,3.9,0,0,1,2.95-1.3,4.19,4.19,0,0,1,1.2.17,3.77,3.77,0,0,1,1,.47,3,3,0,0,1,.74.72,3.23,3.23,0,0,1,.47.9.14.14,0,0,0,.15.1.2.2,0,0,0,.15-.06.2.2,0,0,0,0-.17,3.53,3.53,0,0,0-.52-1,3.75,3.75,0,0,0-.81-.78,3.84,3.84,0,0,0-1.08-.51,4.23,4.23,0,0,0-1.31-.19,4.31,4.31,0,0,0-1.77.36,4,4,0,0,0-1.38,1,4.54,4.54,0,0,0-.91,1.48,5.62,5.62,0,0,0,0,3.74,4.54,4.54,0,0,0,.91,1.48,4,4,0,0,0,1.38,1,4.31,4.31,0,0,0,1.77.36,4.56,4.56,0,0,0,1.31-.18,4.16,4.16,0,0,0,1.08-.52,3.46,3.46,0,0,0,.83-.79,3.4,3.4,0,0,0,.52-1,.21.21,0,0,0,0-.18.2.2,0,0,0-.15-.06.14.14,0,0,0-.15.1,3.15,3.15,0,0,1-.47.91,3.4,3.4,0,0,1-1.75,1.2,4.19,4.19,0,0,1-1.2.17A4,4,0,0,1,12.69,63.58ZM7.58,60.85A2.25,2.25,0,0,0,7,60.11a3.44,3.44,0,0,0-.84-.49,9.38,9.38,0,0,0-1-.33c-.29-.09-.58-.18-.85-.28a2.76,2.76,0,0,1-.72-.39,1.72,1.72,0,0,1-.5-.57,1.84,1.84,0,0,1-.18-.85,1.8,1.8,0,0,1,.64-1.46,2,2,0,0,1,.7-.36,2.84,2.84,0,0,1,.88-.13,2.43,2.43,0,0,1,1.43.38,1.94,1.94,0,0,1,.73,1.06.1.1,0,0,0,0,.08.21.21,0,0,0,.11,0,.21.21,0,0,0,.15-.07.2.2,0,0,0,0-.17,2.36,2.36,0,0,0-.35-.75,2,2,0,0,0-.56-.52A2.2,2.2,0,0,0,6,55a3.44,3.44,0,0,0-.86-.1,3.5,3.5,0,0,0-1,.14,2.28,2.28,0,0,0-.82.42,2.17,2.17,0,0,0-.58.72,2.32,2.32,0,0,0-.21,1,2.16,2.16,0,0,0,.22,1,2.12,2.12,0,0,0,.58.68,3,3,0,0,0,.82.43c.3.11.6.21.91.29A7.93,7.93,0,0,1,6,60a2.68,2.68,0,0,1,.76.43,1.9,1.9,0,0,1,.53.63,2,2,0,0,1,.19.91,2,2,0,0,1-.18.89,1.69,1.69,0,0,1-.5.62A2,2,0,0,1,6,63.8a3,3,0,0,1-.91.13,2.71,2.71,0,0,1-1.63-.42,2,2,0,0,1-.79-1.21.2.2,0,0,0,0-.09.16.16,0,0,0-.11,0,.16.16,0,0,0-.15.07.19.19,0,0,0,0,.15,2.52,2.52,0,0,0,.41.92,2.19,2.19,0,0,0,.65.57,2.21,2.21,0,0,0,.8.3,4.43,4.43,0,0,0,.9.09,3.88,3.88,0,0,0,1-.14A2.57,2.57,0,0,0,7,63.71,2,2,0,0,0,7.57,63a2.36,2.36,0,0,0,.22-1.06A2.46,2.46,0,0,0,7.58,60.85Z" transform="translate(-1.83 -1.44)"/><path class="cls-1" d="M353.72,30.9h11.33a.46.46,0,0,1,.52.52.46.46,0,0,1-.52.53H353.2a.47.47,0,0,1-.53-.53V5.68a.47.47,0,0,1,.53-.53.46.46,0,0,1,.52.53Zm14.42,3.9V28H356.89V2.3h-7.38V34.8ZM329.5,8.67h0l3.93,13h-7.93Zm7.92,26.13h8L334.3,2.3H325L313.79,34.8h7.71l2.29-7.45h11.37Zm-9.9-28.6L321.72,24h15.65L331.61,6.2ZM341,31.68a.47.47,0,0,1-.08.49.55.55,0,0,1-.44.2A.47.47,0,0,1,340,32l-2.26-7H321.36l-2.26,7a.47.47,0,0,1-.48.38.54.54,0,0,1-.46-.21.51.51,0,0,1-.06-.48l8.57-26.17a.45.45,0,0,1,.47-.36H332a.48.48,0,0,1,.5.36ZM292.71,23h2.83l8,11.85h8.78l-9.44-13A9.09,9.09,0,0,0,307,18a10.28,10.28,0,0,0,1-2.59,12,12,0,0,0,.35-2.91,11.09,11.09,0,0,0-.71-3.94,8.9,8.9,0,0,0-2.11-3.26A10.11,10.11,0,0,0,302,3.12a13.58,13.58,0,0,0-4.95-.82H285.38V34.8h7.33Zm0-6.26v-8h4a4.39,4.39,0,0,1,3.14,1.08,3.81,3.81,0,0,1,1.14,2.92,3.74,3.74,0,0,1-1.13,2.88,4.36,4.36,0,0,1-3.15,1.07Zm4.21,2.57a8.89,8.89,0,0,0,2.89-.45,6.43,6.43,0,0,0,2.27-1.3,5.6,5.6,0,0,0,1.48-2.08,7.11,7.11,0,0,0,.52-2.81,7,7,0,0,0-.46-2.6,5.36,5.36,0,0,0-1.38-2A6.43,6.43,0,0,0,300,6.67a9.3,9.3,0,0,0-3.07-.47h-7.35V19.26Zm.19,1h-7.54V31.42a.53.53,0,1,1-1.05,0V5.68a.47.47,0,0,1,.52-.53h7.88a10.32,10.32,0,0,1,3.32.51,7.59,7.59,0,0,1,2.61,1.48,6.52,6.52,0,0,1,1.69,2.34,8,8,0,0,1,.59,3.14,8.26,8.26,0,0,1-.52,3.05,6.81,6.81,0,0,1-1.43,2.27A6.89,6.89,0,0,1,301,19.45a9.33,9.33,0,0,1-2.7.76l8.09,11.45a.58.58,0,0,1,.08.55c-.07.19-.24.28-.51.28a.47.47,0,0,1-.41-.21ZM267.61,6.2h-8.52a.47.47,0,0,1-.53-.52.47.47,0,0,1,.53-.53h18.08a.46.46,0,0,1,.52.53.46.46,0,0,1-.52.52h-8.52V31.42a.52.52,0,1,1-1,0Zm12.65,2.9V2.3H256V9.1h8.45V34.8h7.38V9.1ZM250.88,34.8V2.3h-7.33V22.67h0L229.46,2.3h-7V34.8h7.32V14.43h0L243.88,34.8Zm-4.19-3.9V5.68a.46.46,0,0,1,.52-.53.47.47,0,0,1,.53.53V31.42a.52.52,0,0,1-.16.37.51.51,0,0,1-.37.16h-1.73a.49.49,0,0,1-.43-.22L227.58,6.2h-.93V31.42a.52.52,0,1,1-1,0V5.68a.46.46,0,0,1,.52-.53h1.74a.48.48,0,0,1,.43.22L245.76,30.9ZM200.44,32a.46.46,0,0,1-.52-.53V5.68a.46.46,0,0,1,.52-.53h13a.47.47,0,0,1,.53.53.47.47,0,0,1-.53.52H201V17.62h11.49a.53.53,0,0,1,0,1.05H201V30.9h12.7a.46.46,0,0,1,.53.52.47.47,0,0,1-.53.53Zm16.33,2.85V28.09H204.13V21.33h11.42V15H204.13V9h12.4V2.3H196.75V34.8ZM163.93,12.92a13.43,13.43,0,0,1,2.77-4.47A12.58,12.58,0,0,1,171,5.5a13.43,13.43,0,0,1,5.39-1.06,14.84,14.84,0,0,1,3.4.39A12.5,12.5,0,0,1,182.85,6a11.24,11.24,0,0,1,2.6,2,10.75,10.75,0,0,1,2,2.73.49.49,0,0,1,0,.52.51.51,0,0,1-.46.24.49.49,0,0,1-.46-.31,10.21,10.21,0,0,0-1.87-2.51,10.62,10.62,0,0,0-2.42-1.76,11.44,11.44,0,0,0-2.81-1,13.34,13.34,0,0,0-3-.34,12.27,12.27,0,0,0-5.19,1,11.73,11.73,0,0,0-3.88,2.86,12.83,12.83,0,0,0-2.44,4.16,15.21,15.21,0,0,0,0,10,12.77,12.77,0,0,0,2.44,4.17,11.57,11.57,0,0,0,3.88,2.85,12.13,12.13,0,0,0,5.19,1.06,14.14,14.14,0,0,0,3.12-.35,11.28,11.28,0,0,0,2.85-1.09,9.84,9.84,0,0,0,2.4-1.81,9,9,0,0,0,1.76-2.51.5.5,0,0,1,.48-.28.47.47,0,0,1,.45.25.52.52,0,0,1,0,.51,10.41,10.41,0,0,1-2,2.81,11.7,11.7,0,0,1-2.65,2,12.39,12.39,0,0,1-3.11,1.17,15.07,15.07,0,0,1-3.34.38A13.43,13.43,0,0,1,171,31.6a12.73,12.73,0,0,1-4.25-3,13.43,13.43,0,0,1-2.77-4.47,15.6,15.6,0,0,1-1-5.63,15.6,15.6,0,0,1,1-5.63M171.77,2a16,16,0,0,0-7.4,4.26A16.1,16.1,0,0,0,161.8,9.7a17.11,17.11,0,0,0-1.64,4.14,19,19,0,0,0-.57,4.71,19,19,0,0,0,.57,4.72,17,17,0,0,0,1.64,4.13,16.1,16.1,0,0,0,2.57,3.43,15.87,15.87,0,0,0,3.37,2.6,16.29,16.29,0,0,0,4,1.66,17.88,17.88,0,0,0,4.57.57,18.06,18.06,0,0,0,5.45-.82,15.4,15.4,0,0,0,4.6-2.36,14,14,0,0,0,3.43-3.72,14.39,14.39,0,0,0,1.94-5l-7.33-1.31a11.31,11.31,0,0,1-.93,2.21,7.29,7.29,0,0,1-1.56,1.95,7.49,7.49,0,0,1-2.34,1.39,9.7,9.7,0,0,1-6.91-.2,8.14,8.14,0,0,1-2.84-2.07A9.7,9.7,0,0,1,168,22.61a12.26,12.26,0,0,1-.65-4.06,12.22,12.22,0,0,1,.65-4.06,9.9,9.9,0,0,1,1.83-3.19,8.32,8.32,0,0,1,2.84-2.09,8.73,8.73,0,0,1,3.65-.75,9,9,0,0,1,3.19.52,7.64,7.64,0,0,1,2.35,1.38,7.78,7.78,0,0,1,1.6,1.94,10.53,10.53,0,0,1,1,2.2l7.33-1.31a14.26,14.26,0,0,0-1.94-4.94,13.63,13.63,0,0,0-3.43-3.7,15.06,15.06,0,0,0-4.6-2.31,18.37,18.37,0,0,0-5.45-.8,17.88,17.88,0,0,0-4.57.57M132.53,30.9h11.33a.46.46,0,0,1,.52.52.46.46,0,0,1-.52.53H132a.47.47,0,0,1-.53-.53V5.68a.47.47,0,0,1,.53-.53.46.46,0,0,1,.52.53ZM147,34.8V28H135.7V2.3h-7.38V34.8ZM108.31,8.67h0l3.93,13h-7.93Zm7.92,26.13h8L113.11,2.3h-9.35L92.6,34.8h7.71l2.29-7.45H114Zm-9.9-28.6L100.53,24h15.65L110.43,6.2ZM119.8,31.68a.47.47,0,0,1-.08.49.55.55,0,0,1-.44.2.47.47,0,0,1-.48-.38l-2.26-7H100.17l-2.26,7a.47.47,0,0,1-.48.38.54.54,0,0,1-.46-.21.51.51,0,0,1-.06-.48l8.57-26.17a.46.46,0,0,1,.47-.36h4.83a.48.48,0,0,1,.5.36ZM80.42,21.09V31.42a.53.53,0,1,1-1,0V21L70.31,5.6a.49.49,0,0,1,0-.52.52.52,0,0,1,.48-.26.48.48,0,0,1,.45.26l8.71,14.78,8.8-14.78a.5.5,0,0,1,.46-.26.49.49,0,0,1,.47.26.47.47,0,0,1,0,.52ZM73.19,2.3H64.76l11.45,19V34.8h7.37V21.21L95,2.3H86.92L80,14.29h0ZM59.09,13.56A12.83,12.83,0,0,0,56.65,9.4a11.67,11.67,0,0,0-3.89-2.86,13.33,13.33,0,0,0-10.37,0A11.69,11.69,0,0,0,38.52,9.4a12.48,12.48,0,0,0-2.44,4.16,15,15,0,0,0,0,10,12.43,12.43,0,0,0,2.44,4.17,11.53,11.53,0,0,0,3.87,2.85,13.21,13.21,0,0,0,10.37,0,11.51,11.51,0,0,0,3.89-2.85,12.77,12.77,0,0,0,2.44-4.17,15.21,15.21,0,0,0,0-10M60,24.18a13.43,13.43,0,0,1-2.77,4.47,12.73,12.73,0,0,1-4.25,3,14.23,14.23,0,0,1-10.78,0,12.73,12.73,0,0,1-4.25-3,13.59,13.59,0,0,1-2.77-4.47,15.6,15.6,0,0,1-1-5.63,15.6,15.6,0,0,1,1-5.63,13.59,13.59,0,0,1,2.77-4.47A12.58,12.58,0,0,1,42.19,5.5,14.23,14.23,0,0,1,53,5.5a12.58,12.58,0,0,1,4.25,2.95A13.43,13.43,0,0,1,60,12.92a15.6,15.6,0,0,1,1,5.63,15.6,15.6,0,0,1-1,5.63m3.77-10.34A17.11,17.11,0,0,0,62.12,9.7a16,16,0,0,0-5.94-6,16.26,16.26,0,0,0-4-1.65A18.61,18.61,0,0,0,43,2a16.42,16.42,0,0,0-4,1.65,16.24,16.24,0,0,0-3.37,2.61A16.44,16.44,0,0,0,33,9.7a17.11,17.11,0,0,0-1.64,4.14,19,19,0,0,0-.57,4.71,19,19,0,0,0,.57,4.72A17,17,0,0,0,33,27.4a16.44,16.44,0,0,0,2.57,3.43A15.87,15.87,0,0,0,39,33.43a16.44,16.44,0,0,0,4,1.66,18.61,18.61,0,0,0,9.14,0,16.29,16.29,0,0,0,4-1.66,15.87,15.87,0,0,0,3.37-2.6,16.1,16.1,0,0,0,2.57-3.43,17.11,17.11,0,0,0,1.64-4.14,19.74,19.74,0,0,0,0-9.42m-24.49.65A9.55,9.55,0,0,1,41.1,11.3a8.28,8.28,0,0,1,2.83-2.09,9.26,9.26,0,0,1,7.3,0,8.32,8.32,0,0,1,2.84,2.09,9.9,9.9,0,0,1,1.83,3.19,12.22,12.22,0,0,1,.65,4.06,12.26,12.26,0,0,1-.65,4.06,9.75,9.75,0,0,1-1.83,3.18,8.22,8.22,0,0,1-2.84,2.1,9.26,9.26,0,0,1-7.3,0,8.18,8.18,0,0,1-2.83-2.1,9.4,9.4,0,0,1-1.83-3.18,12,12,0,0,1-.66-4.06,12,12,0,0,1,.66-4.06M9.53,23h2.84l8,11.85h8.78l-9.45-13a8.87,8.87,0,0,0,2.38-1.6A9.21,9.21,0,0,0,23.82,18a10.3,10.3,0,0,0,1-2.59,12,12,0,0,0,.34-2.91,11.08,11.08,0,0,0-.7-3.94,9.06,9.06,0,0,0-2.12-3.26,10.07,10.07,0,0,0-3.53-2.21,13.58,13.58,0,0,0-4.95-.82H2.2V34.8H9.53Zm0-6.26v-8h4a4.37,4.37,0,0,1,3.14,1.08,3.78,3.78,0,0,1,1.15,2.92,3.78,3.78,0,0,1-1.13,2.88,4.4,4.4,0,0,1-3.16,1.07Zm4.22,2.57a8.94,8.94,0,0,0,2.89-.45,6.51,6.51,0,0,0,2.27-1.3,5.69,5.69,0,0,0,1.47-2.08,7.11,7.11,0,0,0,.53-2.81,7,7,0,0,0-.47-2.6,5.36,5.36,0,0,0-1.38-2,6.43,6.43,0,0,0-2.25-1.33,9.24,9.24,0,0,0-3.06-.47H6.39V19.26Zm.19,1H6.39V31.42a.46.46,0,0,1-.52.53.46.46,0,0,1-.52-.53V5.68a.46.46,0,0,1,.52-.53h7.88a10.26,10.26,0,0,1,3.31.51,7.59,7.59,0,0,1,2.61,1.48,6.52,6.52,0,0,1,1.69,2.34A7.82,7.82,0,0,1,22,12.62a8.26,8.26,0,0,1-.52,3.05A6.66,6.66,0,0,1,20,17.94a6.89,6.89,0,0,1-2.15,1.51,9.15,9.15,0,0,1-2.7.76l8.09,11.45a.55.55,0,0,1,.08.55c-.07.19-.24.28-.51.28a.45.45,0,0,1-.4-.21Z" transform="translate(-1.83 -1.44)"/><rect class="cls-1" y="43.3" width="366.07" height="1.39"/></svg>